#!OML:ASF H:\Terrain\Patient Classification 1\Takeo\Monday\TakeoMonday.ASF
:FULLY-SPECIFIED
:DEGREES
79
root 10.2739 16.3872 -22.3333 -1.0437 6.77536 2.58061
lowerback 6.96828 -3.30911 -2.60085
upperback 1.00446 -4.55003 1.6134
thorax -2.52474 -2.2397 3.52205
lowerneck -12.0668 1.60296 -6.10141
upperneck -2.89732 2.90632 1.0114
head 1.02599 1.51739 1.49409
rclavicle -3.96575e-014 -3.97569e-015
rhumerus -53.3898 -4.72474 -81.0454
rradius 19.1744
rwrist -9.62395
rhand -28.3233 16.6381
rfingers 7.12502
rthumb -1.69818 -13.3348
lclavicle -3.96575e-014 -3.97569e-015
lhumerus -23.5678 -13.3667 86.0924
lradius 88.383
lwrist 29.5013
lhand -25.7405 11.9096
lfingers 7.12502
lthumb 0.796403 41.8879
rfemur -33.9361 6.03399 18.3862
rtibia 35.6695
rfoot -11.217 -18.8859
rtoes -13.1253
lfemur 23.1284 -3.30965 -25.6743
ltibia 21.9873
lfoot -5.59595 1.47876
ltoes -26.8391
80
root 10.2771 16.3985 -22.067 -0.999739 6.30843 2.0384
lowerback 6.77864 -3.29997 -1.88564
upperback 0.956522 -4.47651 1.79966
thorax -2.51436 -2.20839 3.29888
lowerneck -12.6921 1.74793 -6.22914
upperneck -2.6339 3.15843 1.03649
head 1.20867 1.63946 1.55278
rclavicle -5.22307e-014 -7.95139e-016
rhumerus -52.5571 -5.12223 -80.6207
rradius 18.6846
rwrist -9.22174
rhand -28.4102 17.4538
rfingers 7.12502
rthumb -1.78212 -12.5185
lclavicle -5.22307e-014 -7.95139e-016
lhumerus -24.7706 -13.0484 86.4923
lradius 87.8483
lwrist 29.4551
lhand -25.7035 11.6943
lfingers 7.12502
lthumb 0.832161 41.6724
rfemur -33.8748 6.24956 19.2582
rtibia 36.9008
rfoot -10.2805 -17.8559
rtoes -10.7498
lfemur 22.2405 -3.04463 -25.0735
ltibia 24.6095
lfoot -3.35629 2.1158
ltoes -25.9088
81
root 10.278 16.4019 -21.8024 -1.22244 5.76616 1.48947
lowerback 6.89269 -3.25353 -1.24088
upperback 0.913525 -4.36276 1.9476
thorax -2.66683 -2.1538 3.09322
lowerneck -13.2938 1.95718 -5.82448
upperneck -2.12061 3.42966 0.643718
head 1.48164 1.75125 1.38852
rclavicle 6.57977e-014 0
rhumerus -51.8842 -5.10309 -80.7508
rradius 18.3525
rwrist -9.87133
rhand -28.8261 18.9677
rfingers 7.12502
rthumb -2.1838 -11.0009
lclavicle 6.57977e-014 0
lhumerus -26.0872 -12.7967 86.9377
lradius 87.0955
lwrist 29.5007
lhand -25.7948 11.2881
lfingers 7.12502
lthumb 0.743891 41.2666
rfemur -33.3921 6.29413 20.2672
rtibia 37.9667
rfoot -10.381 -16.6074
rtoes -7.03553
lfemur 21.5144 -2.73272 -24.4965
ltibia 27.3781
lfoot -0.827464 2.72136
ltoes -25.475
82
root 10.276 16.4031 -21.5459 -1.57976 5.44027 1.36411
lowerback 7.34274 -3.20359 -1.09933
upperback 0.832176 -4.28451 1.96315
thorax -3.01574 -2.10961 3.05824
lowerneck -13.7936 2.12272 -5.40123
upperneck -1.4354 3.63265 0.351736
head 1.80083 1.82752 1.25366
rclavicle 2.6339e-014 1.11319e-014
rhumerus -51.2441 -5.28693 -80.7075
rradius 18.0982
rwrist -10.0285
rhand -29.4724 19.989
rfingers 7.12502
rthumb -2.80794 -9.9723
lclavicle 2.6339e-014 1.11319e-014
lhumerus -27.5243 -12.7586 87.3884
lradius 86.1636
lwrist 29.6152
lhand -25.869 10.6927
lfingers 7.12502
lthumb 0.672226 40.6714
rfemur -32.6629 6.16939 20.8034
rtibia 38.9174
rfoot -10.9787 -15.8694
rtoes -3.48548
lfemur 20.8148 -2.61221 -24.3597
ltibia 30.2835
lfoot 1.94719 3.24414
ltoes -24.5852
83
root 10.2746 16.4116 -21.2925 -1.94342 5.19307 1.32352
lowerback 7.85739 -3.2157 -1.05669
upperback 0.713407 -4.29289 2.04954
thorax -3.42179 -2.10596 3.16543
lowerneck -14.0117 2.24471 -5.629
upperneck -1.02726 3.84294 0.531581
head 1.96412 1.92944 1.37648
rclavicle 2.77802e-014 -1.11319e-014
rhumerus -50.5731 -5.53996 -80.1975
rradius 18.073
rwrist -8.98537
rhand -29.7457 20.0876
rfingers 7.12502
rthumb -3.07187 -9.87001
lclavicle 2.77802e-014 -1.11319e-014
lhumerus -29.0238 -12.5 87.8893
lradius 85.1986
lwrist 29.5655
lhand -25.9106 10.7226
lfingers 7.12502
lthumb 0.632101 40.7014
rfemur -31.8178 6.06997 21.2127
rtibia 39.8291
rfoot -11.216 -15.7355
rtoes -3.17282
lfemur 19.8837 -2.28504 -24.1476
ltibia 33.3744
lfoot 4.86556 3.51415
ltoes -25.0379
84
root 10.2699 16.4226 -21.0403 -2.07337 4.91862 1.215
lowerback 8.00274 -3.14599 -0.764476
upperback 0.653736 -4.17684 1.95299
thorax -3.59989 -2.04942 2.90349
lowerneck -14.3873 2.2806 -5.40184
upperneck -0.673544 3.88102 0.538656
head 2.15377 1.94077 1.35724
rclavicle -1.1281e-014 -4.77083e-015
rhumerus -49.9132 -5.65845 -80.6774
rradius 18.4411
rwrist -9.86985
rhand -29.9389 20.7804
rfingers 7.12502
rthumb -3.25844 -9.17446
lclavicle -1.1281e-014 -4.77083e-015
lhumerus -30.0518 -12.7729 88.1128
lradius 84.0102
lwrist 29.7331
lhand -26.7455 11.9783
lfingers 7.12502
lthumb -0.174237 41.9579
rfemur -31.121 6.308 21.6009
rtibia 40.6808
rfoot -11.6293 -15.8189
rtoes -4.08114
lfemur 18.5329 -1.85157 -23.7831
ltibia 36.6645
lfoot 7.89251 3.671
ltoes -25.869
85
root 10.2606 16.4371 -20.7955 -2.11414 4.78634 1.07688
lowerback 8.03138 -3.01283 -0.374407
upperback 0.697719 -3.9733 1.72496
thorax -3.62377 -1.95512 2.42901
lowerneck -14.9246 2.2605 -4.60525
upperneck -0.427309 3.76683 0.215919
head 2.35665 1.8675 1.12227
rclavicle -4.37823e-014 2.38542e-015
rhumerus -49.046 -6.32013 -81.2916
rradius 18.7583
rwrist -11.1144
rhand -30.214 21.072
rfingers 7.12502
rthumb -3.52411 -8.87865
lclavicle -4.37823e-014 2.38542e-015
lhumerus -30.6379 -13.6431 88.162
lradius 82.5458
lwrist 30.224
lhand -27.2987 13.6644
lfingers 7.12502
lthumb -0.708582 43.6429
rfemur -30.4586 6.50482 21.9856
rtibia 41.3757
rfoot -12.5896 -15.6698
rtoes -3.25631
lfemur 17.0425 -1.70117 -23.4608
ltibia 40.1193
lfoot 10.6778 3.58246
ltoes -26.9673
86
root 10.2508 16.466 -20.5564 -2.12056 4.92037 1.04603
lowerback 8.10272 -3.0336 -0.264843
upperback 0.671787 -3.99213 1.67438
thorax -3.70084 -1.96523 2.32332
lowerneck -15.1472 2.33281 -4.54922
upperneck -0.422126 3.85869 0.335083
head 2.39565 1.91731 1.16247
rclavicle -2.25621e-014 -3.97569e-015
rhumerus -48.152 -7.2853 -80.8502
rradius 19.1772
rwrist -9.79393
rhand -30.2663 19.3446
rfingers 7.12502
rthumb -3.5746 -10.6052
lclavicle -2.25621e-014 -3.97569e-015
lhumerus -31.4447 -13.9207 88.4761
lradius 81.0712
lwrist 30.528
lhand -25.9605 14.5537
lfingers 7.12502
lthumb 0.583941 44.5326
rfemur -29.7023 6.20719 22.2855
rtibia 41.8357
rfoot -13.4622 -15.3065
rtoes -2.12536
lfemur 15.2991 -1.82633 -23.3412
ltibia 43.6776
lfoot 12.9915 1.04355
ltoes -34.685
87
root 10.2401 16.5073 -20.3146 -2.04672 5.03338 1.07695
lowerback 8.05642 -3.1201 -0.400213
upperback 0.575745 -4.11528 1.77324
thorax -3.75305 -2.02265 2.51513
lowerneck -15.3307 2.41657 -5.17881
upperneck -0.342371 4.06611 0.877151
head 2.4312 2.03828 1.47125
rclavicle 4.55714e-014 -1.03368e-014
rhumerus -47.3334 -7.31757 -80.767
rradius 19.8839
rwrist -9.2084
rhand -30.2254 18.2662
rfingers 7.12502
rthumb -3.53509 -11.6843
lclavicle 4.55714e-014 -1.03368e-014
lhumerus -32.3984 -13.5595 89.0119
lradius 79.5664
lwrist 30.6637
lhand -25.0582 14.7469
lfingers 7.12502
lthumb 1.45536 44.7217
rfemur -28.8867 5.96415 22.5147
rtibia 42.051
rfoot -14.1674 -15.1885
rtoes -1.51491
lfemur 13.2777 -1.98944 -23.3403
ltibia 47.2335
lfoot 18.0066 9.70332
ltoes -14.3834
